<mxfile host="65bd71144e">
    <diagram id="l-QxryAbmmtkSLuMSDRI" name="ページ1">
        <mxGraphModel dx="652" dy="827" grid="1" gridSize="10" guides="1" tooltips="1" connect="1" arrows="1" fold="1" page="1" pageScale="1" pageWidth="827" pageHeight="1169" math="0" shadow="0">
            <root>
                <mxCell id="0"/>
                <mxCell id="1" parent="0"/>
                <mxCell id="2" value="" style="rounded=0;whiteSpace=wrap;html=1;fillColor=none;" vertex="1" parent="1">
                    <mxGeometry x="40" y="90" width="300" height="260" as="geometry"/>
                </mxCell>
                <mxCell id="3" value="リバーシで学ぶアプリケーション設計入門" style="rounded=0;whiteSpace=wrap;html=1;fillColor=none;" vertex="1" parent="1">
                    <mxGeometry x="40" y="90" width="300" height="30" as="geometry"/>
                </mxCell>
                <mxCell id="4" value="対戦する" style="rounded=1;whiteSpace=wrap;html=1;fillColor=none;" vertex="1" parent="1">
                    <mxGeometry x="150" y="150" width="80" height="30" as="geometry"/>
                </mxCell>
                <mxCell id="5" value="過去の対戦結果" style="rounded=0;whiteSpace=wrap;html=1;fillColor=none;" vertex="1" parent="1">
                    <mxGeometry x="60" y="200" width="260" height="130" as="geometry"/>
                </mxCell>
                <mxCell id="6" value="" style="rounded=0;whiteSpace=wrap;html=1;fillColor=none;" vertex="1" parent="1">
                    <mxGeometry x="370" y="90" width="300" height="310" as="geometry"/>
                </mxCell>
                <mxCell id="7" value="リバーシで学ぶアプリケーション設計入門" style="rounded=0;whiteSpace=wrap;html=1;fillColor=none;" vertex="1" parent="1">
                    <mxGeometry x="370" y="90" width="300" height="30" as="geometry"/>
                </mxCell>
                <mxCell id="8" value="白の番はスキップです" style="rounded=1;whiteSpace=wrap;html=1;fillColor=none;" vertex="1" parent="1">
                    <mxGeometry x="410" y="150" width="220" height="30" as="geometry"/>
                </mxCell>
                <mxCell id="9" value="盤面" style="rounded=0;whiteSpace=wrap;html=1;fillColor=none;" vertex="1" parent="1">
                    <mxGeometry x="410" y="200" width="220" height="130" as="geometry"/>
                </mxCell>
                <mxCell id="10" value="次は黒の番です" style="text;html=1;strokeColor=none;fillColor=none;align=center;verticalAlign=middle;whiteSpace=wrap;rounded=0;" vertex="1" parent="1">
                    <mxGeometry x="460" y="360" width="120" height="30" as="geometry"/>
                </mxCell>
            </root>
        </mxGraphModel>
    </diagram>
</mxfile>